<svg width="32" height="32" viewBox="0 0 32 32" fill="none" xmlns="http://www.w3.org/2000/svg">
<rect width="32" height="32" fill="#FF6543"/>
<path fill-rule="evenodd" clip-rule="evenodd" d="M17.6584 5.08985C17.6584 4.2118 16.9466 3.5 16.0685 3.5C15.1905 3.5 14.4787 4.2118 14.4787 5.08985C14.7235 8.24737 14.8786 10.884 14.9455 13.3611C13.2169 11.5402 11.4714 9.57225 9.42971 7.18039C8.80883 6.55951 7.80219 6.55951 7.18132 7.18039C6.56044 7.80127 6.56044 8.80791 7.18132 9.42878C9.49911 11.4819 11.4235 13.2339 13.2107 14.9452C10.746 14.8776 8.16254 14.7217 5.08985 14.479C4.2118 14.479 3.5 15.1908 3.5 16.0689C3.5 16.9469 4.2118 17.6587 5.08985 17.6587C8.18054 17.4716 10.7801 17.3496 13.2539 17.296C11.4631 18.9912 9.52581 20.708 7.18117 22.7094C6.56029 23.3303 6.5603 24.3369 7.18117 24.9578C7.80205 25.5786 8.80869 25.5786 9.42956 24.9578C11.4822 22.6405 13.2338 20.7165 14.9448 18.9297C14.8772 21.3935 14.7213 23.9762 14.4787 27.0478C14.4787 27.9258 15.1905 28.6376 16.0685 28.6376C16.9466 28.6376 17.6584 27.9258 17.6584 27.0478C17.4751 24.0205 17.3544 21.4645 17.2991 19.0362C18.9658 20.7789 20.6924 22.6743 22.7079 24.9554C23.3288 25.5762 24.3354 25.5762 24.9563 24.9554C25.5772 24.3345 25.5772 23.3279 24.9563 22.707C22.6004 20.6902 20.6586 18.9657 18.8899 17.2946C21.3439 17.3467 23.9474 17.4671 27.0478 17.6587C27.9258 17.6587 28.6376 16.9469 28.6376 16.0689C28.6376 15.1908 27.9258 14.479 27.0478 14.479C23.9558 14.7188 21.3633 14.8724 18.931 14.9415C20.7028 13.2433 22.6287 11.4877 24.9562 9.43118C25.577 8.8103 25.577 7.80367 24.9562 7.18279C24.3353 6.56191 23.3286 6.56191 22.7078 7.18279C20.6905 9.53919 18.9657 11.4813 17.2942 13.2504C17.3463 10.7956 17.4667 8.19134 17.6584 5.08985Z" fill="white"/>
</svg>
