<svg width="210" height="40" viewBox="0 0 210 40" fill="none" xmlns="http://www.w3.org/2000/svg">
<g filter="url(#filter0_f_188_11436)">
<mask id="path-1-outside-1_188_11436" maskUnits="userSpaceOnUse" x="5" y="6" width="200" height="28" fill="black">
<rect fill="white" x="5" y="6" width="200" height="28"/>
<path d="M203.032 8.56997H192.328L191.918 10.3051H196.598L193.492 28.4566L185.605 8.56997H176.55L176.141 10.3051H180.461L176.952 30.089H172.531L172.121 31.8242H182.837L183.235 30.089H178.875L182.511 10.3051H183.869L192.523 31.8242H194.838L198.65 10.3051H202.634L203.032 8.56997Z"/>
<path d="M173.531 8.57004H162.739L162.329 10.3052H166.649L163.141 30.0891H158.718L158.31 31.8242H169.026L169.424 30.0891H165.064L168.7 10.3052H173.136L173.531 8.57004Z"/>
<path d="M135.639 18.1927C135.63 17.0792 135.475 15.97 135.137 14.9105C132.88 7.82183 125.27 8.56994 125.27 8.56994H114.479L114.069 10.3062H118.388L114.88 30.0901H110.458L110.048 31.8263H120.764C129.763 32.1517 132.766 27.3625 132.766 27.3625C135.315 24.5635 135.655 20.3851 135.637 18.1949L135.639 18.1927ZM131.833 24.9441C129.176 30.7138 121.165 30.089 121.165 30.089H116.804L120.441 10.3051H124.878C130.665 9.86832 132.474 14.2435 132.474 14.2435C134.739 20.197 131.834 24.9441 131.834 24.9441H131.833Z"/>
<path d="M140.471 23.2391C140.471 23.2391 138.848 31.0467 145.884 30.5234L145.882 30.5224C145.882 30.5224 150.624 30.1051 152.009 22.6543L151.013 28.0132C151.013 28.0132 149.323 31.544 145.341 32.2153C145.341 32.2153 138.807 33.1959 138.421 26.5321C138.421 26.5321 137.61 21.611 141.128 17.5428C141.128 17.5428 144.453 13.0877 150.407 15.412C150.407 15.412 152.564 16.4909 152.877 17.9861L152.606 19.4412C152.606 19.4412 151.103 15.1796 145.999 16.4974C145.999 16.4974 141.901 17.0012 140.471 23.2391Z"/>
<path d="M154.294 30.2294C154.87 29.8337 156.167 28.678 156.697 26.0521H158.31C158.31 26.0521 156.812 32.4769 152.781 32.2078C152.781 32.2078 150.631 32.1699 150.747 29.6304L151.015 28.0142L153.395 15.2023H155.353L152.973 28.0142C152.973 28.0142 152.273 30.344 153.569 30.4402C153.827 30.4596 154.08 30.3753 154.294 30.2294Z"/>
<path d="M27.9792 10.3049H31.8497L32.2477 8.56978H21.5424L21.1336 10.3049H25.4625L17.9502 19.5623L13.33 10.3341L13.2006 10.3049H17.7161L18.1142 8.56978H7.40992L7 10.3049H10.9708L16.2857 21.2596L14.8143 30.0369H10.4282L10.0183 31.7721H20.7355L21.1336 30.0369H17.2922L18.7053 21.6066L27.9792 10.3049Z"/>
<path d="M104.483 8.56978H93.7788L93.3689 10.3049H98.0495L94.9427 28.4564L87.0572 8.56978H78.0012L77.5924 10.3049H81.9116L78.4036 30.0888H73.9819L73.5719 31.824H84.2881L84.6861 30.0888H80.3259L83.9623 10.3049H85.3204L93.974 31.824H96.289L100.101 10.3049H104.085L104.483 8.56978Z"/>
<path d="M47.2466 8.56879C41.2833 6.8077 35.5455 9.15366 32.5402 15.3623C29.3558 21.9429 31.5337 29.5711 37.0266 31.4435C43.2229 33.556 49.2767 31.0597 52.3544 24.8867C55.5949 18.3861 53.8214 10.5104 47.2455 8.56879H47.2466ZM50.5011 24.0348C47.869 29.3203 42.6673 31.5916 37.6804 29.6705C33.592 28.0954 31.7926 21.7278 34.5197 16.0953C37.0914 10.7796 41.5811 8.55582 46.4526 10.1018C52.2303 11.9353 53.2734 18.4705 50.5022 24.0359L50.5011 24.0348Z"/>
<path d="M67.5908 15.0824C63.3169 13.7948 59.2037 15.5094 57.0494 20.0478C54.7668 24.8576 56.3278 30.4338 60.2651 31.8025C64.7063 33.3463 69.046 31.5225 71.252 27.01C73.5746 22.2586 72.3038 16.5019 67.5908 15.0824ZM69.5088 26.17C67.7602 29.7506 64.305 31.29 60.9911 29.9873C58.2749 28.9203 57.0797 24.6068 58.8908 20.7905C60.5996 17.1894 63.5823 15.6824 66.8185 16.73C70.6566 17.9721 71.3502 22.3992 69.5088 26.17Z"/>
</mask>
<path d="M203.032 8.56997H192.328L191.918 10.3051H196.598L193.492 28.4566L185.605 8.56997H176.55L176.141 10.3051H180.461L176.952 30.089H172.531L172.121 31.8242H182.837L183.235 30.089H178.875L182.511 10.3051H183.869L192.523 31.8242H194.838L198.65 10.3051H202.634L203.032 8.56997Z" fill="#FF6543"/>
<path d="M173.531 8.57004H162.739L162.329 10.3052H166.649L163.141 30.0891H158.718L158.31 31.8242H169.026L169.424 30.0891H165.064L168.7 10.3052H173.136L173.531 8.57004Z" fill="#FF6543"/>
<path d="M135.639 18.1927C135.63 17.0792 135.475 15.97 135.137 14.9105C132.88 7.82183 125.27 8.56994 125.27 8.56994H114.479L114.069 10.3062H118.388L114.88 30.0901H110.458L110.048 31.8263H120.764C129.763 32.1517 132.766 27.3625 132.766 27.3625C135.315 24.5635 135.655 20.3851 135.637 18.1949L135.639 18.1927ZM131.833 24.9441C129.176 30.7138 121.165 30.089 121.165 30.089H116.804L120.441 10.3051H124.878C130.665 9.86832 132.474 14.2435 132.474 14.2435C134.739 20.197 131.834 24.9441 131.834 24.9441H131.833Z" fill="#FF6543"/>
<path d="M140.471 23.2391C140.471 23.2391 138.848 31.0467 145.884 30.5234L145.882 30.5224C145.882 30.5224 150.624 30.1051 152.009 22.6543L151.013 28.0132C151.013 28.0132 149.323 31.544 145.341 32.2153C145.341 32.2153 138.807 33.1959 138.421 26.5321C138.421 26.5321 137.61 21.611 141.128 17.5428C141.128 17.5428 144.453 13.0877 150.407 15.412C150.407 15.412 152.564 16.4909 152.877 17.9861L152.606 19.4412C152.606 19.4412 151.103 15.1796 145.999 16.4974C145.999 16.4974 141.901 17.0012 140.471 23.2391Z" fill="#FF6543"/>
<path d="M154.294 30.2294C154.87 29.8337 156.167 28.678 156.697 26.0521H158.31C158.31 26.0521 156.812 32.4769 152.781 32.2078C152.781 32.2078 150.631 32.1699 150.747 29.6304L151.015 28.0142L153.395 15.2023H155.353L152.973 28.0142C152.973 28.0142 152.273 30.344 153.569 30.4402C153.827 30.4596 154.08 30.3753 154.294 30.2294Z" fill="#FF6543"/>
<path d="M27.9792 10.3049H31.8497L32.2477 8.56978H21.5424L21.1336 10.3049H25.4625L17.9502 19.5623L13.33 10.3341L13.2006 10.3049H17.7161L18.1142 8.56978H7.40992L7 10.3049H10.9708L16.2857 21.2596L14.8143 30.0369H10.4282L10.0183 31.7721H20.7355L21.1336 30.0369H17.2922L18.7053 21.6066L27.9792 10.3049Z" fill="#FF6543"/>
<path d="M104.483 8.56978H93.7788L93.3689 10.3049H98.0495L94.9427 28.4564L87.0572 8.56978H78.0012L77.5924 10.3049H81.9116L78.4036 30.0888H73.9819L73.5719 31.824H84.2881L84.6861 30.0888H80.3259L83.9623 10.3049H85.3204L93.974 31.824H96.289L100.101 10.3049H104.085L104.483 8.56978Z" fill="#FF6543"/>
<path d="M47.2466 8.56879C41.2833 6.8077 35.5455 9.15366 32.5402 15.3623C29.3558 21.9429 31.5337 29.5711 37.0266 31.4435C43.2229 33.556 49.2767 31.0597 52.3544 24.8867C55.5949 18.3861 53.8214 10.5104 47.2455 8.56879H47.2466ZM50.5011 24.0348C47.869 29.3203 42.6673 31.5916 37.6804 29.6705C33.592 28.0954 31.7926 21.7278 34.5197 16.0953C37.0914 10.7796 41.5811 8.55582 46.4526 10.1018C52.2303 11.9353 53.2734 18.4705 50.5022 24.0359L50.5011 24.0348Z" fill="#FF6543"/>
<path d="M67.5908 15.0824C63.3169 13.7948 59.2037 15.5094 57.0494 20.0478C54.7668 24.8576 56.3278 30.4338 60.2651 31.8025C64.7063 33.3463 69.046 31.5225 71.252 27.01C73.5746 22.2586 72.3038 16.5019 67.5908 15.0824ZM69.5088 26.17C67.7602 29.7506 64.305 31.29 60.9911 29.9873C58.2749 28.9203 57.0797 24.6068 58.8908 20.7905C60.5996 17.1894 63.5823 15.6824 66.8185 16.73C70.6566 17.9721 71.3502 22.3992 69.5088 26.17Z" fill="#FF6543"/>
<path d="M203.032 8.56997H192.328L191.918 10.3051H196.598L193.492 28.4566L185.605 8.56997H176.55L176.141 10.3051H180.461L176.952 30.089H172.531L172.121 31.8242H182.837L183.235 30.089H178.875L182.511 10.3051H183.869L192.523 31.8242H194.838L198.65 10.3051H202.634L203.032 8.56997Z" stroke="#FF6543" stroke-width="3" stroke-linejoin="round" mask="url(#path-1-outside-1_188_11436)"/>
<path d="M173.531 8.57004H162.739L162.329 10.3052H166.649L163.141 30.0891H158.718L158.31 31.8242H169.026L169.424 30.0891H165.064L168.7 10.3052H173.136L173.531 8.57004Z" stroke="#FF6543" stroke-width="3" stroke-linejoin="round" mask="url(#path-1-outside-1_188_11436)"/>
<path d="M135.639 18.1927C135.63 17.0792 135.475 15.97 135.137 14.9105C132.88 7.82183 125.27 8.56994 125.27 8.56994H114.479L114.069 10.3062H118.388L114.88 30.0901H110.458L110.048 31.8263H120.764C129.763 32.1517 132.766 27.3625 132.766 27.3625C135.315 24.5635 135.655 20.3851 135.637 18.1949L135.639 18.1927ZM131.833 24.9441C129.176 30.7138 121.165 30.089 121.165 30.089H116.804L120.441 10.3051H124.878C130.665 9.86832 132.474 14.2435 132.474 14.2435C134.739 20.197 131.834 24.9441 131.834 24.9441H131.833Z" stroke="#FF6543" stroke-width="3" stroke-linejoin="round" mask="url(#path-1-outside-1_188_11436)"/>
<path d="M140.471 23.2391C140.471 23.2391 138.848 31.0467 145.884 30.5234L145.882 30.5224C145.882 30.5224 150.624 30.1051 152.009 22.6543L151.013 28.0132C151.013 28.0132 149.323 31.544 145.341 32.2153C145.341 32.2153 138.807 33.1959 138.421 26.5321C138.421 26.5321 137.61 21.611 141.128 17.5428C141.128 17.5428 144.453 13.0877 150.407 15.412C150.407 15.412 152.564 16.4909 152.877 17.9861L152.606 19.4412C152.606 19.4412 151.103 15.1796 145.999 16.4974C145.999 16.4974 141.901 17.0012 140.471 23.2391Z" stroke="#FF6543" stroke-width="3" stroke-linejoin="round" mask="url(#path-1-outside-1_188_11436)"/>
<path d="M154.294 30.2294C154.87 29.8337 156.167 28.678 156.697 26.0521H158.31C158.31 26.0521 156.812 32.4769 152.781 32.2078C152.781 32.2078 150.631 32.1699 150.747 29.6304L151.015 28.0142L153.395 15.2023H155.353L152.973 28.0142C152.973 28.0142 152.273 30.344 153.569 30.4402C153.827 30.4596 154.08 30.3753 154.294 30.2294Z" stroke="#FF6543" stroke-width="3" stroke-linejoin="round" mask="url(#path-1-outside-1_188_11436)"/>
<path d="M27.9792 10.3049H31.8497L32.2477 8.56978H21.5424L21.1336 10.3049H25.4625L17.9502 19.5623L13.33 10.3341L13.2006 10.3049H17.7161L18.1142 8.56978H7.40992L7 10.3049H10.9708L16.2857 21.2596L14.8143 30.0369H10.4282L10.0183 31.7721H20.7355L21.1336 30.0369H17.2922L18.7053 21.6066L27.9792 10.3049Z" stroke="#FF6543" stroke-width="3" stroke-linejoin="round" mask="url(#path-1-outside-1_188_11436)"/>
<path d="M104.483 8.56978H93.7788L93.3689 10.3049H98.0495L94.9427 28.4564L87.0572 8.56978H78.0012L77.5924 10.3049H81.9116L78.4036 30.0888H73.9819L73.5719 31.824H84.2881L84.6861 30.0888H80.3259L83.9623 10.3049H85.3204L93.974 31.824H96.289L100.101 10.3049H104.085L104.483 8.56978Z" stroke="#FF6543" stroke-width="3" stroke-linejoin="round" mask="url(#path-1-outside-1_188_11436)"/>
<path d="M47.2466 8.56879C41.2833 6.8077 35.5455 9.15366 32.5402 15.3623C29.3558 21.9429 31.5337 29.5711 37.0266 31.4435C43.2229 33.556 49.2767 31.0597 52.3544 24.8867C55.5949 18.3861 53.8214 10.5104 47.2455 8.56879H47.2466ZM50.5011 24.0348C47.869 29.3203 42.6673 31.5916 37.6804 29.6705C33.592 28.0954 31.7926 21.7278 34.5197 16.0953C37.0914 10.7796 41.5811 8.55582 46.4526 10.1018C52.2303 11.9353 53.2734 18.4705 50.5022 24.0359L50.5011 24.0348Z" stroke="#FF6543" stroke-width="3" stroke-linejoin="round" mask="url(#path-1-outside-1_188_11436)"/>
<path d="M67.5908 15.0824C63.3169 13.7948 59.2037 15.5094 57.0494 20.0478C54.7668 24.8576 56.3278 30.4338 60.2651 31.8025C64.7063 33.3463 69.046 31.5225 71.252 27.01C73.5746 22.2586 72.3038 16.5019 67.5908 15.0824ZM69.5088 26.17C67.7602 29.7506 64.305 31.29 60.9911 29.9873C58.2749 28.9203 57.0797 24.6068 58.8908 20.7905C60.5996 17.1894 63.5823 15.6824 66.8185 16.73C70.6566 17.9721 71.3502 22.3992 69.5088 26.17Z" stroke="#FF6543" stroke-width="3" stroke-linejoin="round" mask="url(#path-1-outside-1_188_11436)"/>
</g>
<defs>
<filter id="filter0_f_188_11436" x="1.5" y="2.5" width="207.032" height="35.3418" filterUnits="userSpaceOnUse" color-interpolation-filters="sRGB">
<feFlood flood-opacity="0" result="BackgroundImageFix"/>
<feBlend mode="normal" in="SourceGraphic" in2="BackgroundImageFix" result="shape"/>
<feGaussianBlur stdDeviation="2" result="effect1_foregroundBlur_188_11436"/>
</filter>
</defs>
</svg>
