<svg width="51" height="51" viewBox="0 0 51 51" fill="none" xmlns="http://www.w3.org/2000/svg">
<path fill-rule="evenodd" clip-rule="evenodd" d="M28.317 3.17971C28.317 1.4236 26.8934 0 25.1373 0C23.3812 0 21.9576 1.4236 21.9576 3.17971C22.4473 9.49483 22.7574 14.7682 22.8912 19.7225C19.434 16.0806 15.9431 12.1447 11.8596 7.36098C10.6179 6.11922 8.60459 6.11922 7.36284 7.36098C6.12108 8.60273 6.12108 10.616 7.36283 11.8578C11.9984 15.964 15.8471 19.4678 19.4214 22.8905C14.4921 22.7553 9.32511 22.4434 3.17971 21.9581C1.4236 21.9581 7.67614e-08 23.3817 0 25.1378C-7.67614e-08 26.8939 1.4236 28.3175 3.17971 28.3175C9.36115 27.9432 14.5602 27.6994 19.5079 27.5921C15.9264 30.9826 12.0518 34.416 7.36245 38.4189C6.1207 39.6606 6.1207 41.6739 7.36245 42.9157C8.6042 44.1574 10.6175 44.1574 11.8592 42.9157C15.9646 38.2811 19.4679 34.433 22.8899 30.8593C22.7546 35.7869 22.4428 40.9524 21.9576 47.0955C21.9576 48.8516 23.3812 50.2752 25.1373 50.2752C26.8934 50.2752 28.317 48.8516 28.317 47.0955C27.9504 41.0411 27.709 35.9291 27.5985 31.0726C30.9319 34.558 34.3849 38.3488 38.416 42.9109C39.6578 44.1527 41.671 44.1527 42.9128 42.9109C44.1546 41.6692 44.1546 39.6559 42.9128 38.4142C38.201 34.3805 34.3174 30.9315 30.7798 27.5893C35.6878 27.6935 40.8949 27.9343 47.0955 28.3175C48.8516 28.3175 50.2752 26.8939 50.2752 25.1378C50.2752 23.3817 48.8516 21.9581 47.0955 21.9581C40.9117 22.4376 35.7267 22.7449 30.8621 22.8831C34.4058 19.4867 38.2575 15.9754 42.9124 11.8625C44.1542 10.6207 44.1542 8.60745 42.9124 7.3657C41.6707 6.12395 39.6574 6.12395 38.4156 7.3657C34.3812 12.0784 30.9315 15.9627 27.5887 19.5009C27.6928 14.5913 27.9336 9.38267 28.317 3.17971Z" fill="#282828"/>
</svg>
